<?xml version="1.0" encoding="UTF-8" standalone="no"?>
<svg
   xmlns:dc="http://purl.org/dc/elements/1.1/"
   xmlns:cc="http://creativecommons.org/ns#"
   xmlns:rdf="http://www.w3.org/1999/02/22-rdf-syntax-ns#"
   xmlns:svg="http://www.w3.org/2000/svg"
   xmlns="http://www.w3.org/2000/svg"
   xmlns:xlink="http://www.w3.org/1999/xlink"
   xmlns:sodipodi="http://sodipodi.sourceforge.net/DTD/sodipodi-0.dtd"
   xmlns:inkscape="http://www.inkscape.org/namespaces/inkscape"
   version="1.1"
   x="0px"
   y="0px"
   viewBox="0 0 40 40"
   enable-background="new 0 0 33 33"
   xml:space="preserve"
   id="svg70"
   sodipodi:docname="wallet_now_v2.svg"
   inkscape:version="1.0.2 (e86c8708, 2021-01-15)"
   width="40"
   height="40"
   inkscape:export-filename="/Users/fvicente/workspace/wallet-now-ui/src/images/wallet_now_32.png"
   inkscape:export-xdpi="76.800003"
   inkscape:export-ydpi="76.800003"><metadata
     id="metadata76"><rdf:RDF><cc:Work
         rdf:about=""><dc:format>image/svg+xml</dc:format><dc:type
           rdf:resource="http://purl.org/dc/dcmitype/StillImage" /><dc:title></dc:title></cc:Work></rdf:RDF></metadata><defs
     id="defs74"><linearGradient
       inkscape:collect="always"
       id="linearGradient3673"><stop
         style="stop-color:#5a005a;stop-opacity:1"
         offset="0"
         id="stop3669" /><stop
         style="stop-color:#de00de;stop-opacity:1"
         offset="1"
         id="stop3671" /></linearGradient><inkscape:path-effect
       effect="bspline"
       id="path-effect854"
       is_visible="true"
       lpeversion="1"
       weight="33.333333"
       steps="2"
       helper_size="0"
       apply_no_weight="true"
       apply_with_weight="true"
       only_selected="false" /><linearGradient
       inkscape:collect="always"
       xlink:href="#linearGradient3673"
       id="linearGradient3675"
       x1="32.860279"
       y1="35.317089"
       x2="8.0558529"
       y2="3.9582622"
       gradientUnits="userSpaceOnUse" /></defs><sodipodi:namedview
     pagecolor="#ffffff"
     bordercolor="#666666"
     borderopacity="1"
     objecttolerance="10"
     gridtolerance="10"
     guidetolerance="10"
     inkscape:pageopacity="0"
     inkscape:pageshadow="2"
     inkscape:window-width="1440"
     inkscape:window-height="801"
     id="namedview72"
     showgrid="false"
     inkscape:object-paths="true"
     inkscape:zoom="14.010995"
     inkscape:cx="19.929942"
     inkscape:cy="19.132614"
     inkscape:window-x="0"
     inkscape:window-y="23"
     inkscape:window-maximized="0"
     inkscape:current-layer="svg70"
     inkscape:document-rotation="0"
     lock-margins="false"
     fit-margin-top="0"
     fit-margin-left="0"
     fit-margin-right="0"
     fit-margin-bottom="0" /><circle
     style="opacity:1;mix-blend-mode:normal;fill:url(#linearGradient3675);fill-opacity:1;stroke:none;stroke-width:0;stroke-miterlimit:4;stroke-dasharray:none;stroke-opacity:1"
     id="path1021"
     cx="20"
     cy="20"
     r="20" /><g
     id="g920"
     transform="translate(2.4349483,2.4364729)"><path
       d="m 30.143152,13.190227 h -0.573851 v -2.275303 c 0,-1.4150649 -1.170999,-2.5662897 -2.611233,-2.5662897 H 6.3685061 c -1.4393709,0 -2.6103698,1.1512248 -2.6103698,2.5662897 v 13.295508 c 0,1.416762 1.1709989,2.567988 2.6103698,2.567988 H 26.958068 c 1.439371,0 2.611233,-1.151226 2.611233,-2.567988 v -2.273607 h 0.573851 c 0.678265,0 1.228815,-0.542102 1.228815,-1.207217 v -6.333011 c 0,-0.664268 -0.551413,-1.20637 -1.228815,-1.20637 z M 28.732256,24.21128 c 0,0.96289 -0.795622,1.745078 -1.774188,1.745078 H 6.3685061 c -0.9777021,0 -1.7741885,-0.782188 -1.7741885,-1.745078 V 10.915773 c 0,-0.9620401 0.7956235,-1.7450774 1.7741885,-1.7450774 H 26.958068 c 0.978566,0 1.774188,0.7830373 1.774188,1.7450774 v 2.275302 h -6.025854 c -1.570536,0 -2.847677,1.255574 -2.847677,2.798743 v 3.149113 c 0,1.543169 1.277141,2.799591 2.847677,2.799591 h 6.025854 z m 1.802666,-3.480824 c 0,0.212091 -0.176038,0.384307 -0.392633,0.384307 h -7.435887 c -1.108868,0 -2.011495,-0.887384 -2.011495,-1.976679 v -3.149115 c 0,-1.089296 0.901764,-1.976681 2.011495,-1.976681 h 7.435887 c 0.215733,0 0.392633,0.173067 0.392633,0.385157 z"
       id="path64"
       sodipodi:nodetypes="scsccssssscsssssssssssscsssscscsssssssc"
       style="fill:#ffffff;stroke:#ffffff;stroke-width:1.1;stroke-miterlimit:4;stroke-dasharray:none;stroke-opacity:1" /><path
       d="m 24.91832,15.663257 h -1.415435 c -0.581744,0 -1.055014,0.388534 -1.055014,0.865406 v 1.941238 c 0,0.478307 0.47327,0.866842 1.055014,0.866842 h 1.415435 c 0.581745,0 1.055016,-0.388535 1.055016,-0.866842 v -1.941238 c 0,-0.476872 -0.473271,-0.865407 -1.055016,-0.865406 z m 0.206454,2.806645 c 0,0.09408 -0.09186,0.16949 -0.206454,0.16949 h -1.415435 c -0.115473,0 -0.206454,-0.07468 -0.206454,-0.16949 v -1.941239 c 0,-0.0948 0.09098,-0.169489 0.206454,-0.169489 h 1.415435 c 0.113727,0 0.206454,0.07612 0.206454,0.169489 z"
       id="path62"
       sodipodi:nodetypes="ssssssssssssssssss"
       style="fill:#ffffff;stroke:#ffffff;stroke-width:0.7;stroke-miterlimit:4;stroke-dasharray:none;stroke-opacity:1" /><rect
       style="fill:#ffffff;fill-opacity:1;stroke:#ffffff;stroke-width:1.11315;stroke-linecap:round;stroke-miterlimit:4;stroke-dasharray:none;stroke-opacity:1"
       id="rect856-7"
       width="1.2868451"
       height="8"
       x="11.787139"
       y="17.729061"
       ry="0.222" /><rect
       style="fill:#ffffff;fill-opacity:1;stroke:#ffffff;stroke-width:1.15717;stroke-linecap:round;stroke-linejoin:miter;stroke-miterlimit:4;stroke-dasharray:none;stroke-opacity:1;paint-order:normal"
       id="rect856-7-2"
       width="1.2428254"
       height="12"
       x="16.029501"
       y="13.707051"
       ry="0.22239427" /><rect
       style="fill:#ffffff;fill-opacity:1;stroke:#ffffff;stroke-width:1.11315;stroke-linecap:round;stroke-miterlimit:4;stroke-dasharray:none;stroke-opacity:1"
       id="rect856-7-25"
       width="1.2868451"
       height="5"
       x="7.7071614"
       y="20.729061"
       ry="0.222" /></g></svg>
